<svg xmlns="http://www.w3.org/2000/svg" viewBox="0 0 128 128"><path fill="#E34F26" d="M18.8 114.1L8.8 1.4h110.5l-10.1 112.8L64 126.7z"/><path fill="#EF652A" d="M64 117.1l36.6-10.1 8.6-96.4H64v106.5z"/><path fill="#EBEBEB" d="M64 23.4v13.8H31.5L30.6 23.4H64zm0 27.9v13.8H49.7L48.8 51.3H64zm0 36.1v14.4l-28.4-7.9-1.9-21.7h13.8l1 11 15.5 4.2z"/><path fill="#FFF" d="M64 51.3v-13.8h33.4l1.3-14.1H64V9.6h48.2l-3.4 38.1-1.4 15.5H64v-11.9zm0 36.1l15.5-4.2 1.6-18.5h-17.1v-14.4h31l-2.4 26.9-28.6 7.9v-14.4z"/></svg>
